<?xml version="1.0" standalone="no"?>
<!DOCTYPE svg PUBLIC "-//W3C//DTD SVG 20010904//EN"
 "http://www.w3.org/TR/2001/REC-SVG-20010904/DTD/svg10.dtd">
<svg version="1.0" xmlns="http://www.w3.org/2000/svg"
 width="2000.000000pt" height="2000.000000pt" viewBox="0 0 2000.000000 2000.000000"
 preserveAspectRatio="xMidYMid meet">

<g transform="translate(0.000000,2000.000000) scale(0.100000,-0.100000)"
fill="#000000" stroke="none">
<path d="M4005 13213 c-872 -1187 -802 -1091 -782 -1074 9 7 23 11 30 8 7 -2
917 -1074 2022 -2381 1105 -1307 2010 -2374 2011 -2373 2 2 -2459 6497 -2559
6754 l-13 33 -709 -967z"/>
<path d="M4873 14138 c7 -18 605 -1591 1327 -3495 723 -1905 1317 -3463 1320
-3463 3 0 146 607 318 1349 l312 1349 -445 1389 c-245 763 -451 1393 -458
1400 -15 14 -2373 1503 -2381 1503 -4 0 0 -15 7 -32z"/>
<path d="M2167 11203 c-538 -476 -977 -867 -975 -868 7 -8 6021 -3075 6023
-3073 2 4 -4056 4803 -4064 4805 -3 0 -446 -388 -984 -864z"/>
<path d="M1326 10092 c10 -17 559 -919 1219 -2005 774 -1274 1203 -1970 1208
-1961 13 22 887 2278 887 2289 -1 7 -3262 1680 -3324 1704 -5 2 -1 -10 10 -27z"/>
</g>
</svg>
