<svg xmlns="http://www.w3.org/2000/svg" width="153" height="153" viewBox="0 0 153 153" fill="none"><path d="M35.8627 28.1196C35.2164 28.6372 34.6993 29.0254 34.0529 29.4136C33.4066 29.8018 32.7602 29.9312 32.1139 30.0606C31.8553 30.0606 31.5968 30.0606 31.4675 29.9312C31.3382 29.8018 31.209 29.6724 31.0797 29.4136C31.0797 29.2842 31.0797 29.0254 31.0797 28.896C31.209 28.7666 31.3382 28.6372 31.5968 28.6372C32.2431 28.5078 32.7602 28.3784 33.2773 28.1196C33.7944 27.8608 34.3115 27.4726 34.8286 27.0844C35.6042 26.4374 35.992 25.9198 36.1213 25.2727C36.2506 24.7551 36.1213 24.2375 35.7335 23.8493C35.4749 23.4611 35.0871 23.3317 34.6993 23.3317C34.3115 23.3317 33.7944 23.5905 33.0188 23.8493L31.4675 24.7551C30.5626 25.2728 29.6577 25.5316 28.8821 25.4022C28.1064 25.4022 27.4601 25.0139 26.943 24.3669C26.4259 23.8493 26.1674 23.2023 26.1674 22.5553C26.1674 21.9083 26.1674 21.2613 26.5552 20.6143C26.8137 19.9673 27.3308 19.3202 27.9772 18.8026C28.4943 18.4144 29.0113 18.0262 29.6577 17.7674C30.1748 17.5086 30.8211 17.3792 31.4675 17.3792C31.726 17.3792 31.8553 17.3792 31.9846 17.5086C32.1139 17.638 32.2431 17.7674 32.2431 18.0262C32.2431 18.1556 32.2431 18.4144 32.1139 18.5438C31.9846 18.6732 31.8553 18.8026 31.5968 18.8026C31.0797 18.8026 30.5626 18.932 30.1748 19.1908C29.787 19.4496 29.2699 19.7085 28.8821 19.9673C28.2357 20.4849 27.8479 21.1319 27.7186 21.6495C27.5894 22.2965 27.7186 22.8141 28.1064 23.2023C28.365 23.5905 28.7528 23.7199 29.1406 23.7199C29.5284 23.7199 30.0455 23.5905 30.6919 23.2023L32.2431 22.2965C33.2773 21.7789 34.0529 21.5201 34.8286 21.5201C35.6042 21.5201 36.2506 21.9083 36.7677 22.4259C37.1555 22.9435 37.414 23.5905 37.5433 24.1081C37.6726 24.6257 37.414 25.4022 37.1555 26.0492C37.0262 26.8256 36.5091 27.4726 35.8627 28.1196Z" fill="#030211"></path><path d="M49.307 19.3203C48.2729 19.8379 47.2387 20.0967 46.2045 20.0967C45.1703 20.0967 44.2654 19.7085 43.4898 19.0615C42.7142 18.4145 41.9385 17.638 41.4214 16.4734C40.9044 15.3088 40.5165 14.2736 40.5165 13.2384C40.5165 12.2032 40.7751 11.2973 41.2922 10.5209C41.8093 9.74451 42.5849 8.96809 43.7483 8.45048C44.3947 8.19168 44.9118 7.93287 45.5581 7.80347C46.2045 7.67407 46.7216 7.67407 47.368 7.80347C47.6265 7.80347 47.885 7.93287 48.0143 8.06228C48.1436 8.19168 48.1436 8.45048 48.1436 8.57989C48.1436 8.83869 48.0143 8.96809 47.885 9.0975C47.7558 9.2269 47.4972 9.2269 47.2387 9.2269C46.7216 9.0975 46.3338 9.0975 45.8167 9.2269C45.2996 9.3563 44.9118 9.4857 44.524 9.6151C43.3605 10.1327 42.7142 11.0385 42.4556 11.9443C42.1971 12.8502 42.4556 14.1442 43.102 15.4382C43.7483 16.7322 44.524 17.638 45.5581 18.0263C46.463 18.4145 47.6265 18.2851 48.6607 17.7674C49.0485 17.5086 49.4363 17.2498 49.8241 16.991C50.2119 16.6028 50.4705 16.344 50.729 15.8264C50.8583 15.5676 50.9876 15.4382 51.2461 15.4382C51.3754 15.4382 51.6339 15.4382 51.7632 15.5676C51.8925 15.697 52.0217 15.8264 52.151 16.0852C52.151 16.344 52.151 16.4734 52.0217 16.7322C51.7632 17.2498 51.3754 17.7674 50.9876 18.2851C50.3412 18.5439 49.8241 18.9321 49.307 19.3203Z" fill="#030211"></path><path d="M59.6488 15.1794C59.1317 15.3088 58.7439 15.05 58.6146 14.5323L56.417 4.56837C56.2877 4.05076 56.5463 3.66255 57.0633 3.53315L60.9415 2.62733C62.2342 2.36853 63.2684 2.36853 64.044 2.88614C64.8197 3.27434 65.3367 4.05076 65.5953 5.21538C65.7246 6.12119 65.7246 6.89761 65.3367 7.54462C64.9489 8.19163 64.4318 8.70924 63.6562 9.09745C64.1733 9.09745 64.8197 9.48565 65.2075 10.0033L67.1466 12.3325C67.4051 12.5913 67.5344 12.8501 67.4051 13.1089C67.4051 13.3677 67.1466 13.4971 66.7587 13.6265C66.5002 13.6265 66.3709 13.6265 66.1124 13.6265C65.9831 13.6265 65.7246 13.4971 65.5953 13.2383L63.1391 10.3915C62.7513 10.0033 62.4928 9.74446 62.1049 9.74446C61.7171 9.61506 61.3293 9.61506 60.9415 9.74446L59.1317 10.1327L60.0366 14.1441C60.4244 14.6617 60.1659 15.05 59.6488 15.1794ZM59.1317 8.83864L61.9757 8.19163C63.6562 7.80342 64.3026 6.89761 64.044 5.60359C63.7855 4.18016 62.7513 3.66255 61.0708 4.05076L58.2268 4.69777L59.1317 8.83864Z" fill="#030211"></path><path d="M79.2981 12.9796C78.1347 12.9796 77.2297 12.5914 76.3248 12.0738C75.5492 11.5562 74.9029 10.7798 74.515 9.87396C74.1272 8.96814 73.8687 7.80352 73.998 6.6389C73.998 5.34488 74.2565 4.30966 74.7736 3.40384C75.2907 2.49803 75.937 1.85101 76.7127 1.33341C77.6176 0.945198 78.5225 0.815796 79.6859 0.815796C80.8494 0.815796 81.7543 1.0746 82.5299 1.72161C83.3055 2.23922 83.9519 3.01564 84.3397 3.92145C84.7275 4.82727 84.9861 5.86249 84.8568 7.15651C84.8568 8.45053 84.5982 9.48575 84.0812 10.3916C83.6933 11.168 83.047 11.815 82.2714 12.3326C81.4957 12.8502 80.3323 12.9796 79.2981 12.9796ZM79.2981 11.4268C80.4615 11.4268 81.3664 11.0386 82.1421 10.2622C82.7884 9.48575 83.1763 8.32113 83.3055 6.8977C83.3055 5.47428 83.047 4.30966 82.4006 3.53324C81.7543 2.75683 80.8494 2.23922 79.6859 2.23922C78.5225 2.23922 77.6176 2.49803 76.8419 3.27444C76.1956 4.05085 75.8078 5.21547 75.6785 6.6389C75.5492 8.06232 75.937 9.22695 76.5834 10.0034C77.2297 11.0386 78.1347 11.4268 79.2981 11.4268Z" fill="#030211"></path><path d="M92.2253 14.5323C91.7082 14.4029 91.4497 14.0147 91.5789 13.3677L94.4229 3.66253C94.5522 3.14492 94.94 2.88612 95.4571 3.01552C95.9742 3.14492 96.2327 3.53313 96.1034 4.05074L93.518 13.2383L98.5596 14.6617C99.0767 14.7911 99.206 15.0499 99.0767 15.5675C98.9474 16.0852 98.5596 16.2146 98.1718 16.0852L92.2253 14.5323Z" fill="#030211"></path><path d="M105.023 19.1909C104.506 18.9321 104.377 18.5439 104.635 18.0263L109.418 9.09757C109.677 8.57996 110.065 8.45055 110.582 8.70936C111.099 8.96816 111.228 9.35637 110.97 9.87398L106.445 18.2851L110.97 20.7438C111.487 21.0026 111.487 21.3908 111.358 21.779C111.099 22.1672 110.711 22.2966 110.323 22.0378L105.023 19.1909Z" fill="#030211"></path><path d="M123.251 32.5192C122.863 32.0016 122.863 31.6134 123.38 31.2252L131.007 24.8845C131.524 24.4963 131.912 24.4963 132.3 25.0139L134.368 27.4726C135.661 29.0254 136.178 30.4488 136.048 31.8722C135.919 33.2957 135.144 34.7191 133.722 35.8837C132.3 37.0483 130.748 37.6953 129.326 37.4365C127.904 37.3071 126.482 36.4013 125.19 34.9779L123.251 32.5192ZM124.931 32.2604L126.482 34.0721C128.421 36.2719 130.49 36.5307 132.687 34.5897C135.014 32.6486 135.144 30.5782 133.334 28.3784L131.782 26.5667L124.931 32.2604Z" fill="#030211"></path><path d="M134.756 50.1182C134.239 49.083 134.109 48.0478 134.239 47.142C134.368 46.2362 134.756 45.3303 135.402 44.5539C136.048 43.7775 136.953 43.1305 137.988 42.6129C139.151 42.0953 140.185 41.8365 141.219 41.8365C142.254 41.8365 143.158 42.2247 143.934 42.7423C144.71 43.2599 145.356 44.0363 145.873 45.0715C146.39 46.1068 146.519 47.142 146.39 48.0478C146.261 48.9536 145.873 49.8594 145.227 50.6358C144.58 51.4123 143.676 52.0593 142.641 52.5769C141.478 53.0945 140.444 53.3533 139.41 53.3533C138.375 53.3533 137.47 52.9651 136.695 52.4475C135.79 51.9299 135.273 51.1534 134.756 50.1182ZM136.178 49.4712C136.695 50.5064 137.47 51.1534 138.375 51.4123C139.41 51.6711 140.573 51.5417 141.866 50.8946C143.158 50.2476 144.063 49.4712 144.58 48.5654C145.097 47.6596 144.968 46.6244 144.58 45.5892C144.063 44.5539 143.288 43.9069 142.383 43.6481C141.349 43.3893 140.185 43.5187 138.892 44.1657C137.6 44.8127 136.695 45.5892 136.178 46.495C135.661 47.4008 135.661 48.436 136.178 49.4712Z" fill="#030211"></path><path d="M139.539 64.9993C139.539 64.4816 139.668 64.2228 140.185 63.964L150.01 59.1762C150.268 59.0468 150.527 59.0468 150.785 59.1762C151.044 59.3056 151.173 59.5644 151.173 59.8232C151.173 60.082 151.173 60.2114 151.044 60.4702C150.915 60.5996 150.785 60.729 150.527 60.8584L142.254 64.8699L151.303 66.8109C151.82 66.9403 152.078 67.1991 152.078 67.5873C152.078 67.8461 152.078 67.9755 151.949 68.1049C151.82 68.2343 151.69 68.3637 151.432 68.4931L143.029 72.5046L152.207 74.4456C152.466 74.4456 152.595 74.575 152.725 74.7044C152.854 74.8338 152.983 74.9632 152.983 75.222C152.983 75.4808 152.983 75.7396 152.725 75.8691C152.595 75.9985 152.337 76.1279 151.949 75.9985L141.219 73.6692C140.961 73.5398 140.702 73.5398 140.573 73.4104C140.444 73.281 140.314 73.1516 140.314 72.8928C140.314 72.634 140.314 72.3752 140.444 72.2458C140.573 72.1164 140.702 71.987 140.961 71.8576L149.105 67.8461L140.185 65.9051C139.927 65.9051 139.668 65.7757 139.539 65.6463C139.668 65.3875 139.668 65.2581 139.539 64.9993Z" fill="#030211"></path><path d="M140.185 84.5391C140.314 84.0215 140.573 83.7627 141.219 83.8921L151.432 85.8331C151.69 85.8331 151.949 85.9625 152.078 86.2214C152.207 86.3508 152.207 86.6096 152.207 86.8684C152.207 87.1272 152.078 87.2566 151.949 87.2566C151.82 87.2566 151.69 87.386 151.432 87.5154L141.736 92.3033L149.881 93.8561C150.398 93.9855 150.656 94.2443 150.527 94.7619C150.398 95.2795 150.139 95.5383 149.622 95.4089L139.41 93.4679C139.151 93.4679 139.022 93.3385 138.892 93.2091C138.763 93.0797 138.763 92.8209 138.763 92.6915C138.763 92.4327 138.892 92.3033 139.022 92.1739C139.151 92.0445 139.28 91.9151 139.539 91.9151L149.234 87.1272L141.09 85.5743C140.314 85.3155 140.056 85.0567 140.185 84.5391Z" fill="#030211"></path><path d="M118.209 124.783C118.855 124.265 119.372 123.877 120.019 123.489C120.665 123.101 121.311 122.971 121.958 122.842C122.216 122.842 122.475 122.842 122.604 122.971C122.733 123.101 122.863 123.23 122.992 123.489C122.992 123.618 122.992 123.877 122.992 124.007C122.992 124.136 122.733 124.265 122.475 124.265C121.829 124.395 121.311 124.524 120.794 124.783C120.277 125.042 119.76 125.43 119.243 125.818C118.467 126.465 118.08 126.983 117.95 127.63C117.821 128.148 117.95 128.665 118.338 129.053C118.597 129.442 118.985 129.571 119.372 129.571C119.76 129.571 120.277 129.312 121.053 128.924L122.604 128.018C123.509 127.501 124.414 127.242 125.19 127.371C125.965 127.371 126.612 127.759 127.129 128.406C127.646 128.924 127.904 129.571 127.904 130.218C128.034 130.865 127.904 131.512 127.517 132.159C127.258 132.806 126.741 133.453 126.095 133.971C125.577 134.488 125.06 134.747 124.414 135.006C123.897 135.265 123.251 135.394 122.604 135.394C122.346 135.394 122.216 135.394 122.087 135.265C121.958 135.135 121.829 135.006 121.829 134.747C121.829 134.488 121.829 134.359 121.958 134.229C122.087 134.1 122.216 133.971 122.475 133.971C122.992 133.971 123.509 133.712 123.897 133.582C124.285 133.324 124.802 133.065 125.19 132.806C125.836 132.288 126.224 131.641 126.353 131.124C126.482 130.477 126.353 129.959 125.965 129.571C125.707 129.183 125.319 129.053 124.931 129.053C124.543 129.053 124.026 129.183 123.38 129.571L121.829 130.477C120.794 130.994 120.019 131.253 119.243 131.253C118.467 131.253 117.821 130.865 117.304 130.347C116.787 129.83 116.658 129.183 116.528 128.665C116.528 128.018 116.658 127.371 116.916 126.724C117.045 126.077 117.563 125.43 118.209 124.783Z" fill="#030211"></path><path d="M104.765 133.583C105.799 133.065 106.833 132.806 107.867 132.806C108.901 132.806 109.806 133.194 110.582 133.841C111.358 134.488 112.133 135.265 112.65 136.429C113.167 137.594 113.555 138.629 113.555 139.664C113.555 140.7 113.297 141.606 112.78 142.382C112.262 143.158 111.487 143.935 110.323 144.452C109.677 144.711 109.16 144.97 108.514 145.099C107.867 145.229 107.35 145.229 106.704 145.099C106.445 145.099 106.187 144.97 106.057 144.841C105.928 144.711 105.928 144.452 105.928 144.323C105.928 144.064 106.057 143.935 106.187 143.805C106.316 143.676 106.574 143.676 106.833 143.676C107.35 143.805 107.738 143.805 108.255 143.676C108.772 143.547 109.16 143.417 109.548 143.158C110.711 142.641 111.358 141.735 111.616 140.829C111.875 139.923 111.616 138.629 110.97 137.335C110.323 136.041 109.548 135.265 108.514 134.747C107.609 134.359 106.445 134.488 105.411 135.006C105.023 135.265 104.635 135.524 104.248 135.782C103.86 136.171 103.601 136.429 103.343 136.947C103.213 137.206 103.084 137.335 102.826 137.335C102.696 137.335 102.438 137.335 102.309 137.206C102.179 137.076 102.05 136.947 101.921 136.688C101.921 136.429 101.921 136.3 102.05 136.041C102.308 135.524 102.696 135.006 103.084 134.488C103.73 134.359 104.248 133.971 104.765 133.583Z" fill="#030211"></path><path d="M94.4229 137.723C94.94 137.594 95.3278 137.853 95.4571 138.37L97.6547 148.334C97.784 148.852 97.5254 149.24 97.0083 149.37L93.1302 150.275C91.8375 150.534 90.8033 150.534 90.0277 150.017C89.252 149.628 88.7349 148.852 88.4764 147.687C88.2179 146.782 88.3471 146.005 88.7349 145.358C89.1228 144.711 89.6398 144.194 90.4155 143.805C89.8984 143.805 89.252 143.417 88.8642 142.899L86.9251 140.57C86.6666 140.311 86.5373 140.053 86.6666 139.794C86.7959 139.535 86.9251 139.406 87.313 139.276C87.5715 139.276 87.7008 139.276 87.9593 139.276C88.0886 139.276 88.3471 139.406 88.4764 139.664L90.9326 142.511C91.3204 142.899 91.5789 143.158 91.9667 143.158C92.3546 143.288 92.7424 143.288 93.1302 143.158L94.94 142.77L94.0351 138.759C93.6473 138.241 93.9058 137.853 94.4229 137.723ZM94.94 144.064L92.096 144.711C90.4155 145.099 89.7691 146.005 90.0277 147.429C90.2862 148.852 91.3204 149.24 93.0009 148.981L95.8449 148.334L94.94 144.064Z" fill="#030211"></path><path d="M74.7736 140.053C75.937 140.053 76.8419 140.311 77.7468 140.958C78.5225 141.476 79.1688 142.252 79.5567 143.158C79.9445 144.064 80.203 145.229 80.0737 146.393C80.0737 147.687 79.8152 148.723 79.2981 149.628C78.781 150.534 78.1347 151.181 77.359 151.699C76.4541 152.216 75.5492 152.346 74.3858 152.346C73.2223 152.346 72.3174 152.087 71.5418 151.569C70.7662 151.052 70.1198 150.275 69.732 149.37C69.3442 148.464 69.0856 147.429 69.2149 146.135C69.2149 144.841 69.4734 143.805 69.9905 142.899C70.5076 141.994 71.154 141.347 71.9296 140.829C72.7052 140.182 73.7394 139.923 74.7736 140.053ZM74.7736 141.476C73.6101 141.476 72.7052 141.864 71.9296 142.641C71.2833 143.417 70.8954 144.582 70.8954 146.005C70.8954 147.429 71.154 148.593 71.8003 149.37C72.4467 150.146 73.3516 150.664 74.5151 150.664C75.6785 150.664 76.5834 150.275 77.359 149.499C78.0054 148.723 78.3932 147.558 78.3932 146.135C78.3932 144.711 78.1347 143.546 77.4883 142.77C76.8419 141.994 75.937 141.605 74.7736 141.476Z" fill="#030211"></path><path d="M61.8464 138.37C62.3635 138.5 62.622 138.888 62.4928 139.535L59.778 149.24C59.6488 149.758 59.261 150.017 58.7439 149.887C58.2268 149.758 57.9682 149.37 58.0975 148.852L60.683 139.664L55.6413 138.241C55.1243 138.112 54.995 137.853 55.1243 137.335C55.2535 136.818 55.6413 136.688 56.0292 136.818L61.8464 138.37Z" fill="#030211"></path><path d="M49.0485 133.841C49.5656 134.1 49.6948 134.488 49.4363 135.006L44.6532 143.935C44.3947 144.452 44.0069 144.582 43.4898 144.323C42.9727 144.064 42.8434 143.676 43.102 143.158L47.6265 134.747L42.9727 132.288C42.4556 132.03 42.4556 131.771 42.5849 131.253C42.8434 130.865 43.2312 130.736 43.6191 130.994L49.0485 133.841Z" fill="#030211"></path><path d="M30.8211 120.513C31.209 121.03 31.209 121.419 30.6919 121.807L23.0648 128.277C22.5477 128.665 22.1599 128.665 21.7721 128.148L19.7038 125.689C18.411 124.136 17.894 122.713 18.0232 121.289C18.1525 119.866 18.9281 118.442 20.3501 117.278C21.7721 116.113 23.3234 115.466 24.7454 115.725C26.1674 115.854 27.5893 116.76 28.8821 118.184L30.8211 120.513ZM29.1406 120.772L27.5893 118.96C25.6503 116.76 23.5819 116.501 21.3843 118.442C19.0574 120.383 18.9281 122.454 20.7379 124.654L22.2892 126.465L29.1406 120.772Z" fill="#030211"></path><path d="M19.3159 103.044C19.833 104.079 19.9623 105.114 19.833 106.02C19.7038 106.926 19.3159 107.832 18.6696 108.608C18.0232 109.384 17.1183 110.031 16.0842 110.549C14.9207 111.067 13.8865 111.325 12.8524 111.325C11.8182 111.325 10.9133 110.937 10.1376 110.42C9.36202 109.902 8.71566 109.126 8.19857 108.09C7.68148 107.055 7.55221 106.02 7.68148 105.114C7.81075 104.208 8.19857 103.303 8.84493 102.526C9.49129 101.75 10.3962 101.103 11.4304 100.585C12.5938 100.067 13.628 99.8087 14.6622 99.8087C15.6963 99.8087 16.6012 100.067 17.3769 100.714C18.1525 101.232 18.7989 102.008 19.3159 103.044ZM17.894 103.691C17.3769 102.656 16.6012 102.008 15.6963 101.75C14.6622 101.491 13.4987 101.62 12.206 102.267C10.9133 102.914 10.0084 103.691 9.62056 104.597C9.23275 105.502 9.23275 106.538 9.74983 107.573C10.2669 108.608 11.0426 109.255 11.9475 109.514C12.9816 109.773 14.1451 109.643 15.4378 108.996C16.7305 108.349 17.6354 107.573 18.1525 106.667C18.411 105.761 18.411 104.726 17.894 103.691Z" fill="#030211"></path><path d="M14.4036 88.1623C14.4036 88.6799 14.2743 88.9387 13.7573 89.1975L3.9326 93.9854C3.67405 94.1148 3.41551 94.1148 3.15696 93.9854C2.89842 93.856 2.76915 93.5972 2.76915 93.3384C2.76915 93.0796 2.76915 92.9502 2.89842 92.6914C3.02769 92.562 3.15696 92.4326 3.41551 92.3032L11.6889 88.2917L2.63988 86.3507C2.12279 86.2213 1.86425 85.9625 1.73497 85.5742C1.73497 85.3154 1.73497 85.186 1.86425 85.0566C1.99352 84.9272 2.12279 84.7978 2.38133 84.6684L10.784 80.657L1.6057 78.7159C1.34716 78.7159 1.21789 78.5865 1.08861 78.4571C1.08861 78.3277 0.959343 78.1983 0.959343 77.9395C0.959343 77.6807 0.959343 77.4219 1.21789 77.2925C1.34716 77.1631 1.6057 77.0337 1.99352 77.1631L12.5938 79.4923C12.8524 79.6217 13.1109 79.6217 13.2402 79.7511C13.3694 79.8805 13.4987 80.01 13.4987 80.2688C13.4987 80.5276 13.4987 80.7864 13.3694 80.9158C13.2402 81.0452 13.1109 81.1746 12.8524 81.304L4.70823 85.3154L13.628 87.2565C13.8865 87.2565 14.1451 87.3859 14.2743 87.5153C14.2743 87.7741 14.4036 87.9035 14.4036 88.1623Z" fill="#030211"></path><path d="M13.7573 68.6225C13.628 69.1401 13.3694 69.3989 12.7231 69.2695L2.51061 67.3285C2.25207 67.3285 1.99352 67.1991 1.86425 66.9402C1.73498 66.8108 1.73498 66.552 1.73498 66.2932C1.73498 66.0344 1.86425 65.905 1.99352 65.905C2.12279 65.7756 2.25207 65.7756 2.51061 65.6462L12.0767 60.8583L3.9326 59.3055C3.41551 59.1761 3.15697 58.9173 3.28624 58.3997C3.54478 57.8821 3.80333 57.7527 4.32041 57.7527L14.5329 59.6937C14.7914 59.6937 14.9207 59.8231 15.05 59.9525C15.1793 60.0819 15.1793 60.3407 15.1793 60.4701C15.1793 60.7289 15.05 60.8583 14.9207 60.9877C14.7914 61.1171 14.6622 61.2465 14.4036 61.2465L4.70823 66.0344L12.8524 67.5873C13.628 67.8461 13.8865 68.1049 13.7573 68.6225Z" fill="#030211"></path><path d="M16.904 34.9654L18.464 39.352L22.6688 37.3532L20.67 41.5581L25.0566 43.118L20.67 44.678L22.6688 48.8828L18.464 46.884L16.904 51.2706L15.3441 46.884L11.1392 48.8828L13.138 44.678L8.7514 43.118L13.138 41.5581L11.1392 37.3532L15.3441 39.352L16.904 34.9654Z" fill="#1C1C1C"></path><path d="M137.52 103.889L139.08 108.275L143.285 106.277L141.286 110.481L145.672 112.041L141.286 113.601L143.285 117.806L139.08 115.807L137.52 120.194L135.96 115.807L131.755 117.806L133.754 113.601L129.367 112.041L133.754 110.481L131.755 106.277L135.96 108.275L137.52 103.889Z" fill="#1C1C1C"></path></svg>